<?xml version="1.0" encoding="UTF-8" standalone="no"?>
<!-- Created with Inkscape (http://www.inkscape.org/) -->

<svg
   xmlns:dc="http://purl.org/dc/elements/1.1/"
   xmlns:cc="http://creativecommons.org/ns#"
   xmlns:rdf="http://www.w3.org/1999/02/22-rdf-syntax-ns#"
   xmlns:svg="http://www.w3.org/2000/svg"
   xmlns="http://www.w3.org/2000/svg"
   xmlns:sodipodi="http://sodipodi.sourceforge.net/DTD/sodipodi-0.dtd"
   xmlns:inkscape="http://www.inkscape.org/namespaces/inkscape"
   version="1.1"
   id="svg2"
   xml:space="preserve"
   width="816"
   height="6816"
   viewBox="0 0 816 6816"
   sodipodi:docname="d_66_I_94_B_16_Continuous_Core_trimmed.svg"
   inkscape:version="0.92.3 (unknown)"><metadata
     id="metadata8"><rdf:RDF><cc:Work
         rdf:about=""><dc:format>image/svg+xml</dc:format><dc:type
           rdf:resource="http://purl.org/dc/dcmitype/StillImage" /><dc:title></dc:title></cc:Work></rdf:RDF></metadata><defs
     id="defs6" /><sodipodi:namedview
     pagecolor="#ffffff"
     bordercolor="#666666"
     borderopacity="1"
     objecttolerance="10"
     gridtolerance="10"
     guidetolerance="10"
     inkscape:pageopacity="0"
     inkscape:pageshadow="2"
     inkscape:window-width="1600"
     inkscape:window-height="848"
     id="namedview4"
     showgrid="false"
     inkscape:zoom="2.2159624"
     inkscape:cx="483.68041"
     inkscape:cy="5972.592"
     inkscape:window-x="1920"
     inkscape:window-y="0"
     inkscape:window-maximized="1"
     inkscape:current-layer="g10" /><g
     id="g10"
     inkscape:groupmode="layer"
     inkscape:label="d_66_I_94_B_16_Continuous_Core"
     transform="matrix(1.3333333,0,0,-1.3333333,0,6816)"><path
       d="m 207.8504,4406.3501 -11.774,-0.2364 c 1.7683,1.3791 3.8911,2.4293 6.0812,2.3641 2.1897,-0.065 3.6227,-0.5122 5.6928,-2.1277 z"
       style="fill:none;stroke:#241f21;stroke-width:0.5;stroke-linecap:round;stroke-linejoin:round;stroke-miterlimit:22.92558479;stroke-dasharray:none;stroke-opacity:1"
       id="path1876"
       inkscape:connector-curvature="0" /><path
       d="m 205.1929,4397.3147 -11.774,-0.2364 c 1.7683,1.379 3.8911,2.4293 6.0812,2.3641 2.1898,-0.065 3.6227,-0.5123 5.6928,-2.1277 z"
       style="fill:none;stroke:#241f21;stroke-width:0.5;stroke-linecap:round;stroke-linejoin:round;stroke-miterlimit:22.92558479;stroke-dasharray:none;stroke-opacity:1"
       id="path1878"
       inkscape:connector-curvature="0" /><path
       d="m 210.5079,4355.1493 -11.774,-0.2364 c 1.7682,1.3791 3.8911,2.4293 6.0812,2.3641 2.1897,-0.065 3.6226,-0.5122 5.6928,-2.1277 z"
       style="fill:none;stroke:#241f21;stroke-width:0.5;stroke-linecap:round;stroke-linejoin:round;stroke-miterlimit:22.92558479;stroke-dasharray:none;stroke-opacity:1"
       id="path1880"
       inkscape:connector-curvature="0" /><path
       d="m 209.2677,4570.2281 -11.774,-0.2364 c 1.7683,1.379 3.8912,2.4292 6.0812,2.364 2.1898,-0.065 3.6227,-0.5122 5.6928,-2.1276 z"
       style="fill:none;stroke:#241f21;stroke-width:0.5;stroke-linecap:round;stroke-linejoin:round;stroke-miterlimit:22.92558479;stroke-dasharray:none;stroke-opacity:1"
       id="path1902"
       inkscape:connector-curvature="0" /><path
       d="m 209.2677,4552.3344 -11.774,-0.2364 c 1.7683,1.379 3.8912,2.4292 6.0812,2.364 2.1898,-0.065 3.6227,-0.5122 5.6928,-2.1276 z"
       style="fill:none;stroke:#241f21;stroke-width:0.5;stroke-linecap:round;stroke-linejoin:round;stroke-miterlimit:22.92558479;stroke-dasharray:none;stroke-opacity:1"
       id="path1904"
       inkscape:connector-curvature="0" /><path
       d="m 206.7874,4541.7044 -11.774,-0.2364 c 1.7683,1.3791 3.8911,2.4293 6.0812,2.3641 2.1897,-0.065 3.6227,-0.5122 5.6928,-2.1277 z"
       style="fill:none;stroke:#241f21;stroke-width:0.5;stroke-linecap:round;stroke-linejoin:round;stroke-miterlimit:22.92558479;stroke-dasharray:none;stroke-opacity:1"
       id="path1906"
       inkscape:connector-curvature="0" /><path
       d="m 209.0906,4513.8895 -11.774,-0.2364 c 1.7682,1.379 3.8911,2.4293 6.0811,2.3641 2.1898,-0.065 3.6227,-0.5123 5.6929,-2.1277 z"
       style="fill:none;stroke:#241f21;stroke-width:0.5;stroke-linecap:round;stroke-linejoin:round;stroke-miterlimit:22.92558479;stroke-dasharray:none;stroke-opacity:1"
       id="path1908"
       inkscape:connector-curvature="0" /><path
       d="m 209.9764,4495.9958 -11.774,-0.2364 c 1.7682,1.379 3.8911,2.4293 6.0812,2.3641 2.1897,-0.065 3.6226,-0.5123 5.6928,-2.1277 z"
       style="fill:none;stroke:#241f21;stroke-width:0.5;stroke-linecap:round;stroke-linejoin:round;stroke-miterlimit:22.92558479;stroke-dasharray:none;stroke-opacity:1"
       id="path1910"
       inkscape:connector-curvature="0" /><path
       d="m 203.7756,4482.1769 -11.774,-0.2364 c 1.7683,1.379 3.8911,2.4293 6.0812,2.3641 2.1897,-0.065 3.6226,-0.5123 5.6928,-2.1277 z"
       style="fill:none;stroke:#241f21;stroke-width:0.5;stroke-linecap:round;stroke-linejoin:round;stroke-miterlimit:22.92558479;stroke-dasharray:none;stroke-opacity:1"
       id="path1912"
       inkscape:connector-curvature="0" /><path
       d="m 206.473,4450.983 c -0.3543,-0.3316 -0.7421,-0.6094 -1.5599,-0.9949 -0.8178,-0.3855 -3.0815,-0.362 -3.2607,-0.995 -0.1791,-0.633 2.3168,-0.4238 3.1902,-0.6395 0.8733,-0.2157 1.0876,-0.8864 1.9848,-0.9238 0.8971,-0.037 2.0792,0.4739 3.1189,0.7106"
       style="fill:none;stroke:#241f21;stroke-width:0.5;stroke-linecap:butt;stroke-linejoin:miter;stroke-miterlimit:22.92558479;stroke-dasharray:none;stroke-opacity:1"
       id="path2028"
       inkscape:connector-curvature="0" /><path
       d="m 199.3133,4450.8407 c -0.3543,-0.3316 -0.7421,-0.6094 -1.5599,-0.9949 -0.8178,-0.3855 -3.0816,-0.362 -3.2607,-0.995 -0.1792,-0.633 2.3167,-0.4238 3.1901,-0.6395 0.8734,-0.2157 1.0877,-0.8864 1.9848,-0.9238 0.8972,-0.037 2.0792,0.4739 3.119,0.7106"
       style="fill:none;stroke:#241f21;stroke-width:0.5;stroke-linecap:butt;stroke-linejoin:miter;stroke-miterlimit:22.92558479;stroke-dasharray:none;stroke-opacity:1"
       id="path2030"
       inkscape:connector-curvature="0" /></g></svg>