<?xml version="1.0" encoding="UTF-8" standalone="no"?>
<!-- Created with Inkscape (http://www.inkscape.org/) -->

<svg
   xmlns:dc="http://purl.org/dc/elements/1.1/"
   xmlns:cc="http://creativecommons.org/ns#"
   xmlns:rdf="http://www.w3.org/1999/02/22-rdf-syntax-ns#"
   xmlns:svg="http://www.w3.org/2000/svg"
   xmlns="http://www.w3.org/2000/svg"
   xmlns:sodipodi="http://sodipodi.sourceforge.net/DTD/sodipodi-0.dtd"
   xmlns:inkscape="http://www.inkscape.org/namespaces/inkscape"
   width="210mm"
   height="297mm"
   viewBox="0 0 210 297"
   version="1.1"
   id="svg18280"
   inkscape:version="0.92.3 (unknown)"
   sodipodi:docname="drawing.svg">
  <defs
     id="defs18274" />
  <sodipodi:namedview
     id="base"
     pagecolor="#ffffff"
     bordercolor="#666666"
     borderopacity="1.0"
     inkscape:pageopacity="0.0"
     inkscape:pageshadow="2"
     inkscape:zoom="0.98994949"
     inkscape:cx="1155.9245"
     inkscape:cy="529.56691"
     inkscape:document-units="mm"
     inkscape:current-layer="layer1"
     showgrid="false"
     inkscape:window-width="1600"
     inkscape:window-height="848"
     inkscape:window-x="1920"
     inkscape:window-y="0"
     inkscape:window-maximized="1" />
  <metadata
     id="metadata18277">
    <rdf:RDF>
      <cc:Work
         rdf:about="">
        <dc:format>image/svg+xml</dc:format>
        <dc:type
           rdf:resource="http://purl.org/dc/dcmitype/StillImage" />
        <dc:title></dc:title>
      </cc:Work>
    </rdf:RDF>
  </metadata>
  <g
     inkscape:label="Layer 1"
     inkscape:groupmode="layer"
     id="layer1">
    <path
       d="m 254.30554,106.2482 h 8.0487"
       style="fill:none;stroke:#241f21;stroke-width:0.17638887;stroke-linecap:butt;stroke-linejoin:miter;stroke-miterlimit:22.92558479;stroke-dasharray:none;stroke-opacity:1"
       id="path1406"
       inkscape:connector-curvature="0" />
    <path
       d="m 254.24995,106.91541 h 8.04869"
       style="fill:none;stroke:#241f21;stroke-width:0.17638887;stroke-linecap:butt;stroke-linejoin:miter;stroke-miterlimit:22.92558479;stroke-dasharray:none;stroke-opacity:1"
       id="path1408"
       inkscape:connector-curvature="0" />
    <path
       d="m 256.68764,111.6414 h 5.7222"
       style="fill:none;stroke:#241f21;stroke-width:0.17638887;stroke-linecap:butt;stroke-linejoin:miter;stroke-miterlimit:22.92558479;stroke-dasharray:none;stroke-opacity:1"
       id="path1410"
       inkscape:connector-curvature="0" />
    <path
       d="m 257.91083,100.46582 h 4.05881"
       style="fill:none;stroke:#241f21;stroke-width:0.17638887;stroke-linecap:butt;stroke-linejoin:miter;stroke-miterlimit:22.92558479;stroke-dasharray:none;stroke-opacity:1"
       id="path1412"
       inkscape:connector-curvature="0" />
    <path
       d="m 258.02206,99.631822 h 4.05878"
       style="fill:none;stroke:#241f21;stroke-width:0.17638887;stroke-linecap:butt;stroke-linejoin:miter;stroke-miterlimit:22.92558479;stroke-dasharray:none;stroke-opacity:1"
       id="path1414"
       inkscape:connector-curvature="0" />
    <path
       d="m 257.46604,94.794604 h 4.05882"
       style="fill:none;stroke:#241f21;stroke-width:0.17638887;stroke-linecap:butt;stroke-linejoin:miter;stroke-miterlimit:22.92558479;stroke-dasharray:none;stroke-opacity:1"
       id="path1416"
       inkscape:connector-curvature="0" />
    <path
       d="m 257.63284,95.795398 h 4.05881"
       style="fill:none;stroke:#241f21;stroke-width:0.17638887;stroke-linecap:butt;stroke-linejoin:miter;stroke-miterlimit:22.92558479;stroke-dasharray:none;stroke-opacity:1"
       id="path1418"
       inkscape:connector-curvature="0" />
    <path
       d="m 254.47234,58.765833 h 8.04869"
       style="fill:none;stroke:#241f21;stroke-width:0.17638887;stroke-linecap:butt;stroke-linejoin:miter;stroke-miterlimit:22.92558479;stroke-dasharray:none;stroke-opacity:1"
       id="path1420"
       inkscape:connector-curvature="0" />
    <path
       d="m 251.73743,64.287229 c 0.0974,0 0.17642,0.07899 0.17642,0.176283 0,0.0974 -0.079,0.176389 -0.17642,0.176389 -0.0973,0 -0.17629,-0.07899 -0.17629,-0.176389 0,-0.0973 0.079,-0.176283 0.17629,-0.176283"
       style="fill:#241f21;fill-opacity:1;fill-rule:evenodd;stroke:none;stroke-width:0.35277775"
       id="path1538"
       inkscape:connector-curvature="0" />
    <path
       d="m 260.85765,105.34442 -4.06901,0.0834 c 0.61112,-0.48651 1.34479,-0.857 2.1016,-0.834 0.75682,0.0229 1.25201,0.18069 1.96741,0.7506 z"
       style="fill:none;stroke:#241f21;stroke-width:0.17638887;stroke-linecap:round;stroke-linejoin:round;stroke-miterlimit:22.92558479;stroke-dasharray:none;stroke-opacity:1"
       id="path1626"
       inkscape:connector-curvature="0" />
    <path
       d="m 261.30243,108.90282 -4.06897,0.0834 c 0.61108,-0.48651 1.34479,-0.857 2.1016,-0.834 0.75678,0.0229 1.25197,0.18069 1.96737,0.7506 z"
       style="fill:none;stroke:#241f21;stroke-width:0.17638887;stroke-linecap:round;stroke-linejoin:round;stroke-miterlimit:22.92558479;stroke-dasharray:none;stroke-opacity:1"
       id="path1628"
       inkscape:connector-curvature="0" />
    <path
       d="m 264.28513,50.812705 c 0.22652,-0.02787 0.55411,-0.262502 0.85711,-0.02893 0.3029,0.233504 -0.21318,0.641103 0.51439,0.714199 0.72753,0.0731 0.50853,-0.402872 0.76341,-0.721889 0.25499,-0.318982 0.56762,-0.143616 1.02291,-0.146403"
       style="fill:none;stroke:#241f21;stroke-width:0.17638887;stroke-linecap:butt;stroke-linejoin:miter;stroke-miterlimit:22.92558479;stroke-dasharray:none;stroke-opacity:1"
       id="path1630"
       inkscape:connector-curvature="0" />
    <path
       d="m 264.39633,54.927117 c 0.22652,-0.02787 0.55411,-0.262502 0.85711,-0.02893 0.30289,0.233504 -0.21319,0.641103 0.51442,0.714199 0.7275,0.0731 0.50849,-0.402908 0.76337,-0.721889 0.25503,-0.319017 0.56762,-0.143616 1.02292,-0.146403"
       style="fill:none;stroke:#241f21;stroke-width:0.17638887;stroke-linecap:butt;stroke-linejoin:miter;stroke-miterlimit:22.92558479;stroke-dasharray:none;stroke-opacity:1"
       id="path1634"
       inkscape:connector-curvature="0" />
    <path
       d="m 268.62194,54.982715 c 0.22651,-0.02787 0.5541,-0.262502 0.85711,-0.02893 0.30289,0.233503 -0.21322,0.641103 0.51438,0.714198 0.7275,0.07309 0.50853,-0.402907 0.76341,-0.721889 0.25499,-0.319017 0.56762,-0.143616 1.02292,-0.146402"
       style="fill:none;stroke:#241f21;stroke-width:0.17638887;stroke-linecap:butt;stroke-linejoin:miter;stroke-miterlimit:22.92558479;stroke-dasharray:none;stroke-opacity:1"
       id="path1636"
       inkscape:connector-curvature="0" />
    <path
       d="m 264.72995,62.711124 c 0.22648,-0.02787 0.55411,-0.262502 0.85711,-0.02893 0.30289,0.233503 -0.21322,0.641103 0.51438,0.714198 0.7275,0.0731 0.5085,-0.402907 0.76342,-0.721889 0.25498,-0.319017 0.56758,-0.143616 1.02288,-0.146402"
       style="fill:none;stroke:#241f21;stroke-width:0.17638887;stroke-linecap:butt;stroke-linejoin:miter;stroke-miterlimit:22.92558479;stroke-dasharray:none;stroke-opacity:1"
       id="path1638"
       inkscape:connector-curvature="0" />
    <path
       d="m 264.39633,65.324325 c 0.22652,-0.02787 0.55411,-0.262502 0.85711,-0.02893 0.30289,0.233504 -0.21319,0.641103 0.51442,0.714199 0.7275,0.0731 0.50849,-0.402908 0.76337,-0.721924 0.25503,-0.318982 0.56762,-0.143581 1.02292,-0.146368"
       style="fill:none;stroke:#241f21;stroke-width:0.17638887;stroke-linecap:butt;stroke-linejoin:miter;stroke-miterlimit:22.92558479;stroke-dasharray:none;stroke-opacity:1"
       id="path1642"
       inkscape:connector-curvature="0" />
    <path
       d="m 264.61876,68.048722 c 0.22648,-0.02787 0.55407,-0.262502 0.85707,-0.02893 0.30293,0.233504 -0.21318,0.641103 0.51442,0.714199 0.7275,0.07309 0.50849,-0.402908 0.76341,-0.721889 0.25499,-0.319017 0.56758,-0.143616 1.02288,-0.146403"
       style="fill:none;stroke:#241f21;stroke-width:0.17638887;stroke-linecap:butt;stroke-linejoin:miter;stroke-miterlimit:22.92558479;stroke-dasharray:none;stroke-opacity:1"
       id="path1644"
       inkscape:connector-curvature="0" />
    <path
       d="m 264.56316,78.835114 c 0.22648,-0.02787 0.55407,-0.262503 0.85707,-0.02893 0.30293,0.233505 -0.21318,0.641104 0.51442,0.7142 0.7275,0.07309 0.5085,-0.402907 0.76338,-0.721889 0.25502,-0.319019 0.56762,-0.143616 1.02291,-0.146404"
       style="fill:none;stroke:#241f21;stroke-width:0.17638887;stroke-linecap:butt;stroke-linejoin:miter;stroke-miterlimit:22.92558479;stroke-dasharray:none;stroke-opacity:1"
       id="path1646"
       inkscape:connector-curvature="0" />
    <path
       d="m 264.72995,83.227515 c 0.22648,-0.02787 0.55411,-0.262503 0.85711,-0.02893 0.30289,0.233505 -0.21322,0.641104 0.51438,0.7142 0.7275,0.07309 0.5085,-0.402907 0.76342,-0.721889 0.25498,-0.319019 0.56758,-0.143616 1.02288,-0.146405"
       style="fill:none;stroke:#241f21;stroke-width:0.17638887;stroke-linecap:butt;stroke-linejoin:miter;stroke-miterlimit:22.92558479;stroke-dasharray:none;stroke-opacity:1"
       id="path1648"
       inkscape:connector-curvature="0" />
    <path
       d="m 264.28513,91.233913 c 0.22652,-0.02787 0.55411,-0.262504 0.85711,-0.02893 0.3029,0.233506 -0.21318,0.641104 0.51439,0.714201 0.72753,0.07309 0.50853,-0.402908 0.76341,-0.72189 0.25499,-0.319018 0.56762,-0.143615 1.02291,-0.146404"
       style="fill:none;stroke:#241f21;stroke-width:0.17638887;stroke-linecap:butt;stroke-linejoin:miter;stroke-miterlimit:22.92558479;stroke-dasharray:none;stroke-opacity:1"
       id="path1650"
       inkscape:connector-curvature="0" />
    <path
       d="m 266.34236,104.80033 c 0.22648,-0.0279 0.55407,-0.2625 0.85707,-0.0289 0.30293,0.23351 -0.21318,0.64111 0.51442,0.7142 0.7275,0.0731 0.50849,-0.40287 0.76338,-0.72189 0.25502,-0.31898 0.56762,-0.14358 1.02291,-0.1464"
       style="fill:none;stroke:#241f21;stroke-width:0.17638887;stroke-linecap:butt;stroke-linejoin:miter;stroke-miterlimit:22.92558479;stroke-dasharray:none;stroke-opacity:1"
       id="path1652"
       inkscape:connector-curvature="0" />
    <path
       d="m 264.45193,94.56992 c 0.22652,-0.02787 0.5541,-0.262501 0.85711,-0.02893 0.30289,0.233503 -0.21319,0.641101 0.51442,0.714198 0.72749,0.0731 0.50849,-0.402908 0.76337,-0.72189 0.25502,-0.319016 0.56762,-0.143615 1.02292,-0.146402"
       style="fill:none;stroke:#241f21;stroke-width:0.17638887;stroke-linecap:butt;stroke-linejoin:miter;stroke-miterlimit:22.92558479;stroke-dasharray:none;stroke-opacity:1"
       id="path1654"
       inkscape:connector-curvature="0" />
    <path
       d="m 268.28835,65.213129 c 0.22648,-0.02787 0.55411,-0.262501 0.85711,-0.02893 0.30289,0.233503 -0.21322,0.641103 0.51438,0.714198 0.7275,0.0731 0.5085,-0.402907 0.76341,-0.721924 0.25499,-0.318982 0.56759,-0.143581 1.02288,-0.146403"
       style="fill:none;stroke:#241f21;stroke-width:0.17638887;stroke-linecap:butt;stroke-linejoin:miter;stroke-miterlimit:22.92558479;stroke-dasharray:none;stroke-opacity:1"
       id="path1656"
       inkscape:connector-curvature="0" />
    <path
       d="m 268.51074,67.937526 c 0.22652,-0.02787 0.55411,-0.262502 0.85711,-0.02893 0.30289,0.233503 -0.21322,0.641103 0.51438,0.714198 0.7275,0.0731 0.5085,-0.402907 0.76342,-0.721924 0.25498,-0.318982 0.56758,-0.143581 1.02291,-0.146368"
       style="fill:none;stroke:#241f21;stroke-width:0.17638887;stroke-linecap:butt;stroke-linejoin:miter;stroke-miterlimit:22.92558479;stroke-dasharray:none;stroke-opacity:1"
       id="path1658"
       inkscape:connector-curvature="0" />
    <path
       d="m 265.39716,72.274329 c 0.22648,-0.02787 0.55407,-0.262502 0.85707,-0.02893 0.3029,0.233504 -0.21318,0.641104 0.51442,0.714199 0.7275,0.0731 0.5085,-0.402907 0.76338,-0.721924 0.25502,-0.318982 0.56762,-0.143581 1.02291,-0.146403"
       style="fill:none;stroke:#241f21;stroke-width:0.17638887;stroke-linecap:butt;stroke-linejoin:miter;stroke-miterlimit:22.92558479;stroke-dasharray:none;stroke-opacity:1"
       id="path1660"
       inkscape:connector-curvature="0" />
    <path
       d="m 267.17636,75.276715 c 0.22648,-0.02787 0.55407,-0.262502 0.85707,-0.02893 0.3029,0.233504 -0.21318,0.641103 0.51442,0.714199 0.7275,0.07309 0.5085,-0.402908 0.76338,-0.721889 0.25502,-0.319017 0.56762,-0.143616 1.02291,-0.146403"
       style="fill:none;stroke:#241f21;stroke-width:0.17638887;stroke-linecap:butt;stroke-linejoin:miter;stroke-miterlimit:22.92558479;stroke-dasharray:none;stroke-opacity:1"
       id="path1662"
       inkscape:connector-curvature="0" />
    <path
       d="m 268.45514,78.723918 c 0.22649,-0.02787 0.55411,-0.262501 0.85711,-0.02893 0.3029,0.233503 -0.21322,0.641101 0.51439,0.714198 0.7275,0.0731 0.50849,-0.402908 0.76341,-0.721889 0.25499,-0.319016 0.56758,-0.143616 1.02288,-0.146402"
       style="fill:none;stroke:#241f21;stroke-width:0.17638887;stroke-linecap:butt;stroke-linejoin:miter;stroke-miterlimit:22.92558479;stroke-dasharray:none;stroke-opacity:1"
       id="path1664"
       inkscape:connector-curvature="0" />
    <path
       d="m 268.62194,83.116319 c 0.22651,-0.02787 0.5541,-0.262501 0.85711,-0.02893 0.30289,0.233503 -0.21322,0.641101 0.51438,0.714198 0.7275,0.0731 0.50853,-0.402908 0.76341,-0.721889 0.25499,-0.319017 0.56762,-0.143616 1.02292,-0.146402"
       style="fill:none;stroke:#241f21;stroke-width:0.17638887;stroke-linecap:butt;stroke-linejoin:miter;stroke-miterlimit:22.92558479;stroke-dasharray:none;stroke-opacity:1"
       id="path1666"
       inkscape:connector-curvature="0" />
    <path
       d="m 268.17715,91.122716 c 0.22649,-0.02787 0.55408,-0.262501 0.85708,-0.02893 0.30293,0.233503 -0.21319,0.641102 0.51442,0.714198 0.7275,0.0731 0.50849,-0.402907 0.76341,-0.721889 0.25499,-0.319016 0.56758,-0.143616 1.02288,-0.146402"
       style="fill:none;stroke:#241f21;stroke-width:0.17638887;stroke-linecap:butt;stroke-linejoin:miter;stroke-miterlimit:22.92558479;stroke-dasharray:none;stroke-opacity:1"
       id="path1668"
       inkscape:connector-curvature="0" />
    <path
       d="m 268.34395,94.458723 c 0.22648,-0.02787 0.55411,-0.262501 0.85711,-0.02893 0.30289,0.233503 -0.21322,0.641104 0.51438,0.714198 0.7275,0.0731 0.5085,-0.402907 0.76341,-0.721923 0.25499,-0.318982 0.56759,-0.143582 1.02288,-0.146368"
       style="fill:none;stroke:#241f21;stroke-width:0.17638887;stroke-linecap:butt;stroke-linejoin:miter;stroke-miterlimit:22.92558479;stroke-dasharray:none;stroke-opacity:1"
       id="path1670"
       inkscape:connector-curvature="0" />
    <path
       d="m 264.95234,100.40793 c 0.22652,-0.0279 0.55411,-0.2625 0.85711,-0.0289 0.3029,0.2335 -0.21322,0.6411 0.51439,0.71424 0.72749,0.0731 0.50849,-0.40291 0.76341,-0.72193 0.25498,-0.31898 0.56758,-0.14358 1.02288,-0.1464"
       style="fill:none;stroke:#241f21;stroke-width:0.17638887;stroke-linecap:butt;stroke-linejoin:miter;stroke-miterlimit:22.92558479;stroke-dasharray:none;stroke-opacity:1"
       id="path1672"
       inkscape:connector-curvature="0" />
    <path
       d="m 255.84475,92.112822 c 0.14658,0 1.14349,-0.632 1.40741,-0.529096 0.26387,0.102905 1.0669,0.566103 1.58337,0.617292 0.5165,0.05119 0.9187,-0.21562 1.37812,-0.323392"
       style="fill:none;stroke:#241f21;stroke-width:0.17638887;stroke-linecap:butt;stroke-linejoin:miter;stroke-miterlimit:22.92558479;stroke-dasharray:none;stroke-opacity:1"
       id="path1694"
       inkscape:connector-curvature="0" />
    <path
       d="m 256.28953,102.84362 c 0.14661,0 1.14353,-0.632 1.40741,-0.5291 0.26391,0.10291 1.0669,0.5661 1.58341,0.61729 0.5165,0.0512 0.9187,-0.21558 1.37809,-0.32339"
       style="fill:none;stroke:#241f21;stroke-width:0.17638887;stroke-linecap:butt;stroke-linejoin:miter;stroke-miterlimit:22.92558479;stroke-dasharray:none;stroke-opacity:1"
       id="path1696"
       inkscape:connector-curvature="0" />
    <path
       d="m 257.46065,100.22163 c -0.22652,0.0279 -0.55411,0.2625 -0.85711,0.0289 -0.3029,-0.2335 0.21322,-0.641103 -0.51439,-0.714199 -0.7275,-0.07313 -0.50849,0.402873 -0.76341,0.721889 -0.25499,0.31898 -0.56758,0.14358 -1.02291,0.1464"
       style="fill:none;stroke:#241f21;stroke-width:0.17638887;stroke-linecap:butt;stroke-linejoin:miter;stroke-miterlimit:22.92558479;stroke-dasharray:none;stroke-opacity:1"
       id="path1730"
       inkscape:connector-curvature="0" />
    <path
       d="m 254.16616,114.72242 h 8.0487"
       style="fill:none;stroke:#241f21;stroke-width:0.17638887;stroke-linecap:butt;stroke-linejoin:miter;stroke-miterlimit:22.92558479;stroke-dasharray:none;stroke-opacity:1"
       id="path1788"
       inkscape:connector-curvature="0" />
    <path
       d="m 254.10365,118.09741 h 8.04869"
       style="fill:none;stroke:#241f21;stroke-width:0.17638887;stroke-linecap:butt;stroke-linejoin:miter;stroke-miterlimit:22.92558479;stroke-dasharray:none;stroke-opacity:1"
       id="path1790"
       inkscape:connector-curvature="0" />
    <path
       d="m 254.16616,126.22241 h 8.0487"
       style="fill:none;stroke:#241f21;stroke-width:0.17638887;stroke-linecap:butt;stroke-linejoin:miter;stroke-miterlimit:22.92558479;stroke-dasharray:none;stroke-opacity:1"
       id="path1792"
       inkscape:connector-curvature="0" />
    <path
       d="m 254.29115,143.59742 h 8.0487"
       style="fill:none;stroke:#241f21;stroke-width:0.17638887;stroke-linecap:butt;stroke-linejoin:miter;stroke-miterlimit:22.92558479;stroke-dasharray:none;stroke-opacity:1"
       id="path1794"
       inkscape:connector-curvature="0" />
    <path
       d="m 254.54113,149.47241 h 8.04873"
       style="fill:none;stroke:#241f21;stroke-width:0.17638887;stroke-linecap:butt;stroke-linejoin:miter;stroke-miterlimit:22.92558479;stroke-dasharray:none;stroke-opacity:1"
       id="path1796"
       inkscape:connector-curvature="0" />
    <path
       d="m 254.16616,155.78491 h 8.0487"
       style="fill:none;stroke:#241f21;stroke-width:0.17638887;stroke-linecap:butt;stroke-linejoin:miter;stroke-miterlimit:22.92558479;stroke-dasharray:none;stroke-opacity:1"
       id="path1798"
       inkscape:connector-curvature="0" />
    <path
       d="m 254.22864,156.59743 h 8.04869"
       style="fill:none;stroke:#241f21;stroke-width:0.17638887;stroke-linecap:butt;stroke-linejoin:miter;stroke-miterlimit:22.92558479;stroke-dasharray:none;stroke-opacity:1"
       id="path1800"
       inkscape:connector-curvature="0" />
    <path
       d="m 254.47865,163.22242 h 8.0487"
       style="fill:none;stroke:#241f21;stroke-width:0.17638887;stroke-linecap:butt;stroke-linejoin:miter;stroke-miterlimit:22.92558479;stroke-dasharray:none;stroke-opacity:1"
       id="path1802"
       inkscape:connector-curvature="0" />
    <path
       d="m 254.29115,202.6599 h 8.0487"
       style="fill:none;stroke:#241f21;stroke-width:0.17638887;stroke-linecap:butt;stroke-linejoin:miter;stroke-miterlimit:22.92558479;stroke-dasharray:none;stroke-opacity:1"
       id="path1804"
       inkscape:connector-curvature="0" />
    <path
       d="m 254.22864,207.97242 h 8.04869"
       style="fill:none;stroke:#241f21;stroke-width:0.17638887;stroke-linecap:butt;stroke-linejoin:miter;stroke-miterlimit:22.92558479;stroke-dasharray:none;stroke-opacity:1"
       id="path1806"
       inkscape:connector-curvature="0" />
    <path
       d="m 254.16616,211.72241 h 8.0487"
       style="fill:none;stroke:#241f21;stroke-width:0.17638887;stroke-linecap:butt;stroke-linejoin:miter;stroke-miterlimit:22.92558479;stroke-dasharray:none;stroke-opacity:1"
       id="path1808"
       inkscape:connector-curvature="0" />
    <path
       d="m 254.29115,214.78491 h 8.0487"
       style="fill:none;stroke:#241f21;stroke-width:0.17638887;stroke-linecap:butt;stroke-linejoin:miter;stroke-miterlimit:22.92558479;stroke-dasharray:none;stroke-opacity:1"
       id="path1810"
       inkscape:connector-curvature="0" />
    <path
       d="m 254.10365,220.90991 h 8.04869"
       style="fill:none;stroke:#241f21;stroke-width:0.17638887;stroke-linecap:butt;stroke-linejoin:miter;stroke-miterlimit:22.92558479;stroke-dasharray:none;stroke-opacity:1"
       id="path1812"
       inkscape:connector-curvature="0" />
    <path
       d="m 255.44085,230.59743 h 6.52399"
       style="fill:none;stroke:#241f21;stroke-width:0.17638887;stroke-linecap:butt;stroke-linejoin:miter;stroke-miterlimit:22.92558479;stroke-dasharray:none;stroke-opacity:1"
       id="path1820"
       inkscape:connector-curvature="0" />
    <path
       d="m 255.37834,234.0349 h 6.52399"
       style="fill:none;stroke:#241f21;stroke-width:0.17638887;stroke-linecap:butt;stroke-linejoin:miter;stroke-miterlimit:22.92558479;stroke-dasharray:none;stroke-opacity:1"
       id="path1822"
       inkscape:connector-curvature="0" />
    <path
       d="m 253.97866,225.59741 h 8.0487"
       style="fill:none;stroke:#241f21;stroke-width:0.17638887;stroke-linecap:butt;stroke-linejoin:miter;stroke-miterlimit:22.92558479;stroke-dasharray:none;stroke-opacity:1"
       id="path1824"
       inkscape:connector-curvature="0" />
    <path
       d="m 254.35363,226.53491 h 8.04873"
       style="fill:none;stroke:#241f21;stroke-width:0.17638887;stroke-linecap:butt;stroke-linejoin:miter;stroke-miterlimit:22.92558479;stroke-dasharray:none;stroke-opacity:1"
       id="path1826"
       inkscape:connector-curvature="0" />
    <path
       d="m 254.04114,196.97242 h 8.04869"
       style="fill:none;stroke:#241f21;stroke-width:0.17638887;stroke-linecap:butt;stroke-linejoin:miter;stroke-miterlimit:22.92558479;stroke-dasharray:none;stroke-opacity:1"
       id="path1828"
       inkscape:connector-curvature="0" />
    <path
       d="m 254.04114,195.84741 h 8.04869"
       style="fill:none;stroke:#241f21;stroke-width:0.17638887;stroke-linecap:butt;stroke-linejoin:miter;stroke-miterlimit:22.92558479;stroke-dasharray:none;stroke-opacity:1"
       id="path1830"
       inkscape:connector-curvature="0" />
    <path
       d="m 254.41614,188.7849 h 8.0487"
       style="fill:none;stroke:#241f21;stroke-width:0.17638887;stroke-linecap:butt;stroke-linejoin:miter;stroke-miterlimit:22.92558479;stroke-dasharray:none;stroke-opacity:1"
       id="path1832"
       inkscape:connector-curvature="0" />
    <path
       d="m 256.12835,181.78491 h 5.34691"
       style="fill:none;stroke:#241f21;stroke-width:0.17638887;stroke-linecap:butt;stroke-linejoin:miter;stroke-miterlimit:22.92558479;stroke-dasharray:none;stroke-opacity:1"
       id="path1834"
       inkscape:connector-curvature="0" />
    <path
       d="m 256.00336,178.53491 h 5.34687"
       style="fill:none;stroke:#241f21;stroke-width:0.17638887;stroke-linecap:butt;stroke-linejoin:miter;stroke-miterlimit:22.92558479;stroke-dasharray:none;stroke-opacity:1"
       id="path1836"
       inkscape:connector-curvature="0" />
    <path
       d="m 255.06585,165.90991 h 5.34688"
       style="fill:none;stroke:#241f21;stroke-width:0.17638887;stroke-linecap:butt;stroke-linejoin:miter;stroke-miterlimit:22.92558479;stroke-dasharray:none;stroke-opacity:1"
       id="path1838"
       inkscape:connector-curvature="0" />
    <path
       d="m 254.22864,152.2131 h 8.04869"
       style="fill:none;stroke:#241f21;stroke-width:0.17638887;stroke-linecap:butt;stroke-linejoin:miter;stroke-miterlimit:22.92558479;stroke-dasharray:none;stroke-opacity:1"
       id="path1840"
       inkscape:connector-curvature="0" />
    <path
       d="m 254.16616,135.58813 h 8.0487"
       style="fill:none;stroke:#241f21;stroke-width:0.17638887;stroke-linecap:butt;stroke-linejoin:miter;stroke-miterlimit:22.92558479;stroke-dasharray:none;stroke-opacity:1"
       id="path1842"
       inkscape:connector-curvature="0" />
    <path
       d="m 255.87833,138.71311 h 5.27403"
       style="fill:none;stroke:#241f21;stroke-width:0.17638887;stroke-linecap:butt;stroke-linejoin:miter;stroke-miterlimit:22.92558479;stroke-dasharray:none;stroke-opacity:1"
       id="path1844"
       inkscape:connector-curvature="0" />
    <path
       d="m 255.56584,122.40063 h 6.18751"
       style="fill:none;stroke:#241f21;stroke-width:0.17638887;stroke-linecap:butt;stroke-linejoin:miter;stroke-miterlimit:22.92558479;stroke-dasharray:none;stroke-opacity:1"
       id="path1846"
       inkscape:connector-curvature="0" />
    <path
       d="m 254.66813,223.66771 c 0.23883,-0.25379 0.4192,-0.5479 0.71642,-0.76161 0.29718,-0.21357 0.8569,-0.12869 1.0348,-0.36417 0.17791,-0.23552 -0.2093,-0.53852 0,-0.72842 0.20931,-0.19 0.53058,-0.15448 0.8756,-0.19868"
       style="fill:none;stroke:#241f21;stroke-width:0.17638887;stroke-linecap:butt;stroke-linejoin:miter;stroke-miterlimit:22.92558479;stroke-dasharray:none;stroke-opacity:1"
       id="path1868"
       inkscape:connector-curvature="0" />
    <path
       d="m 256.12764,224.04303 c 0.2388,-0.25382 0.41921,-0.5479 0.71639,-0.76161 0.29721,-0.21361 0.85693,-0.12869 1.0348,-0.36421 0.17791,-0.23548 -0.2093,-0.53848 0,-0.72838 0.2093,-0.19 0.53061,-0.15451 0.87563,-0.19872"
       style="fill:none;stroke:#241f21;stroke-width:0.17638887;stroke-linecap:butt;stroke-linejoin:miter;stroke-miterlimit:22.92558479;stroke-dasharray:none;stroke-opacity:1"
       id="path1870"
       inkscape:connector-curvature="0" />
    <path
       d="m 254.91814,171.6677 c 0.2388,-0.25378 0.41921,-0.54789 0.71639,-0.76157 0.29721,-0.21361 0.85693,-0.1287 1.0348,-0.36421 0.17791,-0.23551 -0.2093,-0.53851 0,-0.72842 0.2093,-0.18997 0.53061,-0.15448 0.87563,-0.19868"
       style="fill:none;stroke:#241f21;stroke-width:0.17638887;stroke-linecap:butt;stroke-linejoin:miter;stroke-miterlimit:22.92558479;stroke-dasharray:none;stroke-opacity:1"
       id="path1872"
       inkscape:connector-curvature="0" />
    <path
       d="m 256.37765,172.04303 c 0.2388,-0.25383 0.41921,-0.5479 0.71639,-0.76162 0.29722,-0.2136 0.8569,-0.12869 1.0348,-0.3642 0.17791,-0.23548 -0.2093,-0.53848 0,-0.72838 0.20931,-0.19001 0.53062,-0.15452 0.8756,-0.19872"
       style="fill:none;stroke:#241f21;stroke-width:0.17638887;stroke-linecap:butt;stroke-linejoin:miter;stroke-miterlimit:22.92558479;stroke-dasharray:none;stroke-opacity:1"
       id="path1874"
       inkscape:connector-curvature="0" />
    <path
       d="m 260.81585,206.46842 -4.15361,0.0834 c 0.62382,-0.48652 1.37269,-0.85701 2.14531,-0.83401 0.77248,0.0229 1.27801,0.1807 2.0083,0.75061 z"
       style="fill:none;stroke:#241f21;stroke-width:0.17638887;stroke-linecap:round;stroke-linejoin:round;stroke-miterlimit:22.92558479;stroke-dasharray:none;stroke-opacity:1"
       id="path1876"
       inkscape:connector-curvature="0" />
    <path
       d="m 259.87834,209.65591 -4.15361,0.0834 c 0.62382,-0.48648 1.3727,-0.85701 2.14532,-0.83401 0.77251,0.0229 1.278,0.18073 2.00829,0.75061 z"
       style="fill:none;stroke:#241f21;stroke-width:0.17638887;stroke-linecap:round;stroke-linejoin:round;stroke-miterlimit:22.92558479;stroke-dasharray:none;stroke-opacity:1"
       id="path1878"
       inkscape:connector-curvature="0" />
    <path
       d="m 261.75335,224.53093 -4.1536,0.0834 c 0.62378,-0.48651 1.37269,-0.857 2.14531,-0.834 0.77248,0.0229 1.27797,0.18069 2.00829,0.75061 z"
       style="fill:none;stroke:#241f21;stroke-width:0.17638887;stroke-linecap:round;stroke-linejoin:round;stroke-miterlimit:22.92558479;stroke-dasharray:none;stroke-opacity:1"
       id="path1880"
       inkscape:connector-curvature="0" />
    <path
       d="m 260.44084,245.21841 -4.1536,0.0834 c 0.62381,-0.48648 1.37269,-0.857 2.14531,-0.834 0.77248,0.0229 1.27801,0.18069 2.00829,0.7506 z"
       style="fill:none;stroke:#241f21;stroke-width:0.17638887;stroke-linecap:round;stroke-linejoin:round;stroke-miterlimit:22.92558479;stroke-dasharray:none;stroke-opacity:1"
       id="path1882"
       inkscape:connector-curvature="0" />
    <path
       d="m 260.25334,249.40592 -4.1536,0.0834 c 0.62381,-0.48652 1.37269,-0.85701 2.14531,-0.83401 0.77251,0.0229 1.27801,0.1807 2.00829,0.75061 z"
       style="fill:none;stroke:#241f21;stroke-width:0.17638887;stroke-linecap:round;stroke-linejoin:round;stroke-miterlimit:22.92558479;stroke-dasharray:none;stroke-opacity:1"
       id="path1884"
       inkscape:connector-curvature="0" />
    <path
       d="m 260.56583,131.3434 -4.1536,0.0834 c 0.62381,-0.48648 1.37273,-0.85696 2.14531,-0.834 0.77251,0.0229 1.27801,0.18073 2.00829,0.75061 z"
       style="fill:none;stroke:#241f21;stroke-width:0.17638887;stroke-linecap:round;stroke-linejoin:round;stroke-miterlimit:22.92558479;stroke-dasharray:none;stroke-opacity:1"
       id="path1900"
       inkscape:connector-curvature="0" />
    <path
       d="m 261.31584,148.6559 -4.15361,0.0834 c 0.62382,-0.48648 1.37273,-0.85696 2.14531,-0.83396 0.77252,0.0229 1.27801,0.18069 2.0083,0.75057 z"
       style="fill:none;stroke:#241f21;stroke-width:0.17638887;stroke-linecap:round;stroke-linejoin:round;stroke-miterlimit:22.92558479;stroke-dasharray:none;stroke-opacity:1"
       id="path1902"
       inkscape:connector-curvature="0" />
    <path
       d="m 261.31584,154.96841 -4.15361,0.0834 c 0.62382,-0.48648 1.37273,-0.85697 2.14531,-0.83396 0.77252,0.0229 1.27801,0.18069 2.0083,0.75057 z"
       style="fill:none;stroke:#241f21;stroke-width:0.17638887;stroke-linecap:round;stroke-linejoin:round;stroke-miterlimit:22.92558479;stroke-dasharray:none;stroke-opacity:1"
       id="path1904"
       inkscape:connector-curvature="0" />
    <path
       d="m 260.44084,158.71843 -4.1536,0.0834 c 0.62381,-0.48652 1.37269,-0.857 2.14531,-0.834 0.77248,0.0229 1.27801,0.18069 2.00829,0.7506 z"
       style="fill:none;stroke:#241f21;stroke-width:0.17638887;stroke-linecap:round;stroke-linejoin:round;stroke-miterlimit:22.92558479;stroke-dasharray:none;stroke-opacity:1"
       id="path1906"
       inkscape:connector-curvature="0" />
    <path
       d="m 261.25336,168.53091 -4.1536,0.0834 c 0.62378,-0.48648 1.37269,-0.857 2.14527,-0.834 0.77251,0.0229 1.27801,0.18072 2.00833,0.7506 z"
       style="fill:none;stroke:#241f21;stroke-width:0.17638887;stroke-linecap:round;stroke-linejoin:round;stroke-miterlimit:22.92558479;stroke-dasharray:none;stroke-opacity:1"
       id="path1908"
       inkscape:connector-curvature="0" />
    <path
       d="m 261.56585,174.84341 -4.1536,0.0834 c 0.62378,-0.48648 1.37269,-0.85701 2.14531,-0.834 0.77248,0.0229 1.27797,0.18072 2.00829,0.7506 z"
       style="fill:none;stroke:#241f21;stroke-width:0.17638887;stroke-linecap:round;stroke-linejoin:round;stroke-miterlimit:22.92558479;stroke-dasharray:none;stroke-opacity:1"
       id="path1910"
       inkscape:connector-curvature="0" />
    <path
       d="m 259.37835,179.71841 -4.15361,0.0834 c 0.62382,-0.48648 1.37269,-0.85701 2.14531,-0.83401 0.77248,0.0229 1.27798,0.18073 2.0083,0.75061 z"
       style="fill:none;stroke:#241f21;stroke-width:0.17638887;stroke-linecap:round;stroke-linejoin:round;stroke-miterlimit:22.92558479;stroke-dasharray:none;stroke-opacity:1"
       id="path1912"
       inkscape:connector-curvature="0" />
    <path
       d="m 266.55085,207.628 c 0.22648,-0.0279 0.55411,-0.26247 0.85711,-0.0289 0.30289,0.23351 -0.21322,0.64111 0.51438,0.7142 0.7275,0.0731 0.5085,-0.40287 0.76341,-0.72189 0.25499,-0.31898 0.56759,-0.14358 1.02288,-0.1464"
       style="fill:none;stroke:#241f21;stroke-width:0.17638887;stroke-linecap:butt;stroke-linejoin:miter;stroke-miterlimit:22.92558479;stroke-dasharray:none;stroke-opacity:1"
       id="path1914"
       inkscape:connector-curvature="0" />
    <path
       d="m 265.48835,221.19051 c 0.22649,-0.0279 0.55411,-0.26251 0.85711,-0.0289 0.3029,0.2335 -0.21322,0.6411 0.51439,0.7142 0.72749,0.0731 0.50849,-0.40291 0.76341,-0.72189 0.25499,-0.31902 0.56758,-0.14362 1.02288,-0.14641"
       style="fill:none;stroke:#241f21;stroke-width:0.17638887;stroke-linecap:butt;stroke-linejoin:miter;stroke-miterlimit:22.92558479;stroke-dasharray:none;stroke-opacity:1"
       id="path1916"
       inkscape:connector-curvature="0" />
    <path
       d="m 266.55085,230.12803 c 0.22648,-0.0279 0.55411,-0.26251 0.85711,-0.0289 0.30289,0.2335 -0.21322,0.6411 0.51438,0.7142 0.7275,0.0731 0.5085,-0.40291 0.76341,-0.72193 0.25499,-0.31898 0.56759,-0.14358 1.02288,-0.1464"
       style="fill:none;stroke:#241f21;stroke-width:0.17638887;stroke-linecap:butt;stroke-linejoin:miter;stroke-miterlimit:22.92558479;stroke-dasharray:none;stroke-opacity:1"
       id="path1918"
       inkscape:connector-curvature="0" />
    <path
       d="m 266.80083,180.00303 c 0.22652,-0.0279 0.5541,-0.2625 0.85711,-0.0289 0.30289,0.23347 -0.21319,0.64107 0.51442,0.7142 0.72749,0.0731 0.50849,-0.4029 0.76337,-0.72192 0.25503,-0.31898 0.56762,-0.14358 1.02292,-0.14641"
       style="fill:none;stroke:#241f21;stroke-width:0.17638887;stroke-linecap:butt;stroke-linejoin:miter;stroke-miterlimit:22.92558479;stroke-dasharray:none;stroke-opacity:1"
       id="path1948"
       inkscape:connector-curvature="0" />
    <path
       d="m 265.86336,187.37803 c 0.22648,-0.0279 0.55407,-0.2625 0.85707,-0.0289 0.30293,0.2335 -0.21318,0.6411 0.51442,0.7142 0.7275,0.0731 0.50849,-0.40291 0.76341,-0.72193 0.25499,-0.31898 0.56758,-0.14358 1.02288,-0.1464"
       style="fill:none;stroke:#241f21;stroke-width:0.17638887;stroke-linecap:butt;stroke-linejoin:miter;stroke-miterlimit:22.92558479;stroke-dasharray:none;stroke-opacity:1"
       id="path1950"
       inkscape:connector-curvature="0" />
    <path
       d="m 265.11335,194.37802 c 0.22648,-0.0279 0.55411,-0.2625 0.85711,-0.0289 0.30289,0.23351 -0.21322,0.64111 0.51438,0.7142 0.7275,0.0731 0.5085,-0.40291 0.76341,-0.72189 0.25499,-0.31902 0.56759,-0.14361 1.02288,-0.1464"
       style="fill:none;stroke:#241f21;stroke-width:0.17638887;stroke-linecap:butt;stroke-linejoin:miter;stroke-miterlimit:22.92558479;stroke-dasharray:none;stroke-opacity:1"
       id="path1952"
       inkscape:connector-curvature="0" />
    <path
       d="m 265.67585,115.94053 c 0.22649,-0.0279 0.55408,-0.26251 0.85708,-0.0289 0.30293,0.2335 -0.21319,0.6411 0.51442,0.7142 0.7275,0.0731 0.50849,-0.40291 0.76341,-0.72193 0.25499,-0.31898 0.56758,-0.14358 1.02288,-0.1464"
       style="fill:none;stroke:#241f21;stroke-width:0.17638887;stroke-linecap:butt;stroke-linejoin:miter;stroke-miterlimit:22.92558479;stroke-dasharray:none;stroke-opacity:1"
       id="path1954"
       inkscape:connector-curvature="0" />
    <path
       d="m 267.11335,121.06551 c 0.22649,-0.0279 0.55411,-0.26251 0.85708,-0.0289 0.30293,0.2335 -0.21319,0.6411 0.51442,0.7142 0.7275,0.0731 0.50849,-0.40291 0.76341,-0.72189 0.25499,-0.31902 0.56758,-0.14362 1.02288,-0.14641"
       style="fill:none;stroke:#241f21;stroke-width:0.17638887;stroke-linecap:butt;stroke-linejoin:miter;stroke-miterlimit:22.92558479;stroke-dasharray:none;stroke-opacity:1"
       id="path1956"
       inkscape:connector-curvature="0" />
    <path
       d="m 264.80086,143.31552 c 0.22648,-0.0279 0.55407,-0.26251 0.85707,-0.0289 0.3029,0.2335 -0.21318,0.6411 0.51442,0.7142 0.7275,0.0731 0.5085,-0.40291 0.76338,-0.72189 0.25502,-0.31902 0.56762,-0.14362 1.02291,-0.14641"
       style="fill:none;stroke:#241f21;stroke-width:0.17638887;stroke-linecap:butt;stroke-linejoin:miter;stroke-miterlimit:22.92558479;stroke-dasharray:none;stroke-opacity:1"
       id="path1958"
       inkscape:connector-curvature="0" />
    <path
       d="m 266.86334,145.62801 c 0.22652,-0.0279 0.55411,-0.2625 0.85711,-0.0289 0.30289,0.2335 -0.21322,0.6411 0.51438,0.7142 0.7275,0.0731 0.5085,-0.40291 0.76341,-0.72189 0.25499,-0.31902 0.56759,-0.14362 1.02292,-0.1464"
       style="fill:none;stroke:#241f21;stroke-width:0.17638887;stroke-linecap:butt;stroke-linejoin:miter;stroke-miterlimit:22.92558479;stroke-dasharray:none;stroke-opacity:1"
       id="path1960"
       inkscape:connector-curvature="0" />
    <path
       d="m 265.42584,150.69052 c 0.22652,-0.0279 0.55411,-0.26251 0.85711,-0.0289 0.30289,0.2335 -0.21322,0.6411 0.51438,0.7142 0.7275,0.0731 0.5085,-0.40291 0.76342,-0.72189 0.25498,-0.31902 0.56758,-0.14362 1.02291,-0.14641"
       style="fill:none;stroke:#241f21;stroke-width:0.17638887;stroke-linecap:butt;stroke-linejoin:miter;stroke-miterlimit:22.92558479;stroke-dasharray:none;stroke-opacity:1"
       id="path1962"
       inkscape:connector-curvature="0" />
    <path
       d="m 254.52585,219.73551 6.13439,-0.21378 0.91711,0.7476"
       style="fill:none;stroke:#241f21;stroke-width:0.17638887;stroke-linecap:butt;stroke-linejoin:miter;stroke-miterlimit:22.92558479;stroke-dasharray:none;stroke-opacity:1"
       id="path1964"
       inkscape:connector-curvature="0" />
    <path
       d="m 258.95844,219.566 0.79159,0.68771"
       style="fill:none;stroke:#241f21;stroke-width:0.17638887;stroke-linecap:butt;stroke-linejoin:miter;stroke-miterlimit:22.92558479;stroke-dasharray:none;stroke-opacity:1"
       id="path1966"
       inkscape:connector-curvature="0" />
    <path
       d="m 257.49596,219.61631 0.66178,0.7015"
       style="fill:none;stroke:#241f21;stroke-width:0.17638887;stroke-linecap:butt;stroke-linejoin:miter;stroke-miterlimit:22.92558479;stroke-dasharray:none;stroke-opacity:1"
       id="path1968"
       inkscape:connector-curvature="0" />
    <path
       d="m 254.65084,161.86052 6.13442,-0.21379 0.91708,0.74758"
       style="fill:none;stroke:#241f21;stroke-width:0.17638887;stroke-linecap:butt;stroke-linejoin:miter;stroke-miterlimit:22.92558479;stroke-dasharray:none;stroke-opacity:1"
       id="path1976"
       inkscape:connector-curvature="0" />
    <path
       d="m 259.08346,161.69101 0.7916,0.6877"
       style="fill:none;stroke:#241f21;stroke-width:0.17638887;stroke-linecap:butt;stroke-linejoin:miter;stroke-miterlimit:22.92558479;stroke-dasharray:none;stroke-opacity:1"
       id="path1978"
       inkscape:connector-curvature="0" />
    <path
       d="m 257.62095,161.74132 0.66181,0.70149"
       style="fill:none;stroke:#241f21;stroke-width:0.17638887;stroke-linecap:butt;stroke-linejoin:miter;stroke-miterlimit:22.92558479;stroke-dasharray:none;stroke-opacity:1"
       id="path1980"
       inkscape:connector-curvature="0" />
    <path
       d="m 255.08836,184.23552 6.13438,-0.21382 0.91712,0.74761"
       style="fill:none;stroke:#241f21;stroke-width:0.17638887;stroke-linecap:butt;stroke-linejoin:miter;stroke-miterlimit:22.92558479;stroke-dasharray:none;stroke-opacity:1"
       id="path1982"
       inkscape:connector-curvature="0" />
    <path
       d="m 259.52094,184.06601 0.7916,0.6877"
       style="fill:none;stroke:#241f21;stroke-width:0.17638887;stroke-linecap:butt;stroke-linejoin:miter;stroke-miterlimit:22.92558479;stroke-dasharray:none;stroke-opacity:1"
       id="path1984"
       inkscape:connector-curvature="0" />
    <path
       d="m 258.05843,184.11632 0.66181,0.70149"
       style="fill:none;stroke:#241f21;stroke-width:0.17638887;stroke-linecap:butt;stroke-linejoin:miter;stroke-miterlimit:22.92558479;stroke-dasharray:none;stroke-opacity:1"
       id="path1986"
       inkscape:connector-curvature="0" />
    <path
       d="m 255.15083,187.86052 6.13442,-0.21382 0.91708,0.74761"
       style="fill:none;stroke:#241f21;stroke-width:0.17638887;stroke-linecap:butt;stroke-linejoin:miter;stroke-miterlimit:22.92558479;stroke-dasharray:none;stroke-opacity:1"
       id="path1988"
       inkscape:connector-curvature="0" />
    <path
       d="m 259.58345,187.69101 0.7916,0.68771"
       style="fill:none;stroke:#241f21;stroke-width:0.17638887;stroke-linecap:butt;stroke-linejoin:miter;stroke-miterlimit:22.92558479;stroke-dasharray:none;stroke-opacity:1"
       id="path1990"
       inkscape:connector-curvature="0" />
    <path
       d="m 258.12094,187.74132 0.66181,0.7015"
       style="fill:none;stroke:#241f21;stroke-width:0.17638887;stroke-linecap:butt;stroke-linejoin:miter;stroke-miterlimit:22.92558479;stroke-dasharray:none;stroke-opacity:1"
       id="path1992"
       inkscape:connector-curvature="0" />
    <path
       d="m 255.08836,201.42303 6.13438,-0.21382 0.91712,0.74761"
       style="fill:none;stroke:#241f21;stroke-width:0.17638887;stroke-linecap:butt;stroke-linejoin:miter;stroke-miterlimit:22.92558479;stroke-dasharray:none;stroke-opacity:1"
       id="path1994"
       inkscape:connector-curvature="0" />
    <path
       d="m 259.52094,201.25352 0.7916,0.6877"
       style="fill:none;stroke:#241f21;stroke-width:0.17638887;stroke-linecap:butt;stroke-linejoin:miter;stroke-miterlimit:22.92558479;stroke-dasharray:none;stroke-opacity:1"
       id="path1996"
       inkscape:connector-curvature="0" />
    <path
       d="m 258.05843,201.30382 0.66181,0.7015"
       style="fill:none;stroke:#241f21;stroke-width:0.17638887;stroke-linecap:butt;stroke-linejoin:miter;stroke-miterlimit:22.92558479;stroke-dasharray:none;stroke-opacity:1"
       id="path1998"
       inkscape:connector-curvature="0" />
    <path
       d="m 254.96333,142.42302 6.13442,-0.21382 0.91708,0.74761"
       style="fill:none;stroke:#241f21;stroke-width:0.17638887;stroke-linecap:butt;stroke-linejoin:miter;stroke-miterlimit:22.92558479;stroke-dasharray:none;stroke-opacity:1"
       id="path2000"
       inkscape:connector-curvature="0" />
    <path
       d="m 259.39595,142.25351 0.7916,0.68771"
       style="fill:none;stroke:#241f21;stroke-width:0.17638887;stroke-linecap:butt;stroke-linejoin:miter;stroke-miterlimit:22.92558479;stroke-dasharray:none;stroke-opacity:1"
       id="path2002"
       inkscape:connector-curvature="0" />
    <path
       d="m 257.93344,142.30382 0.66181,0.7015"
       style="fill:none;stroke:#241f21;stroke-width:0.17638887;stroke-linecap:butt;stroke-linejoin:miter;stroke-miterlimit:22.92558479;stroke-dasharray:none;stroke-opacity:1"
       id="path2004"
       inkscape:connector-curvature="0" />
    <path
       d="m 254.58833,150.98551 6.13442,-0.21379 0.91708,0.74761"
       style="fill:none;stroke:#241f21;stroke-width:0.17638887;stroke-linecap:butt;stroke-linejoin:miter;stroke-miterlimit:22.92558479;stroke-dasharray:none;stroke-opacity:1"
       id="path2006"
       inkscape:connector-curvature="0" />
    <path
       d="m 259.02095,150.81603 0.7916,0.68767"
       style="fill:none;stroke:#241f21;stroke-width:0.17638887;stroke-linecap:butt;stroke-linejoin:miter;stroke-miterlimit:22.92558479;stroke-dasharray:none;stroke-opacity:1"
       id="path2008"
       inkscape:connector-curvature="0" />
    <path
       d="m 257.55844,150.86631 0.66181,0.70149"
       style="fill:none;stroke:#241f21;stroke-width:0.17638887;stroke-linecap:butt;stroke-linejoin:miter;stroke-miterlimit:22.92558479;stroke-dasharray:none;stroke-opacity:1"
       id="path2010"
       inkscape:connector-curvature="0" />
    <path
       d="m 255.52584,146.54802 6.13441,-0.21382 0.91709,0.74761"
       style="fill:none;stroke:#241f21;stroke-width:0.17638887;stroke-linecap:butt;stroke-linejoin:miter;stroke-miterlimit:22.92558479;stroke-dasharray:none;stroke-opacity:1"
       id="path2012"
       inkscape:connector-curvature="0" />
    <path
       d="m 259.95845,146.37851 0.7916,0.6877"
       style="fill:none;stroke:#241f21;stroke-width:0.17638887;stroke-linecap:butt;stroke-linejoin:miter;stroke-miterlimit:22.92558479;stroke-dasharray:none;stroke-opacity:1"
       id="path2014"
       inkscape:connector-curvature="0" />
    <path
       d="m 258.49594,146.42882 0.66181,0.70149"
       style="fill:none;stroke:#241f21;stroke-width:0.17638887;stroke-linecap:butt;stroke-linejoin:miter;stroke-miterlimit:22.92558479;stroke-dasharray:none;stroke-opacity:1"
       id="path2016"
       inkscape:connector-curvature="0" />
    <path
       d="m 258.02315,145.3496 c 0.14658,0 1.14349,-0.63197 1.40741,-0.5291 0.26388,0.10291 1.06687,0.5661 1.58337,0.61733 0.5165,0.0512 0.9187,-0.21562 1.37813,-0.32343"
       style="fill:none;stroke:#241f21;stroke-width:0.17638887;stroke-linecap:butt;stroke-linejoin:miter;stroke-miterlimit:22.92558479;stroke-dasharray:none;stroke-opacity:1"
       id="path2022"
       inkscape:connector-curvature="0" />
    <path
       d="m 254.06333,146.14261 1.58792,-2.10609 1.29469,2.10609"
       style="fill:none;stroke:#241f21;stroke-width:0.17638887;stroke-linecap:butt;stroke-linejoin:miter;stroke-miterlimit:22.92558479;stroke-dasharray:none;stroke-opacity:1"
       id="path2024"
       inkscape:connector-curvature="0" />
    <path
       d="m 254.64954,146.70582 0.81241,-1.07749 0.66241,1.07749"
       style="fill:none;stroke:#241f21;stroke-width:0.17638887;stroke-linecap:butt;stroke-linejoin:miter;stroke-miterlimit:22.92558479;stroke-dasharray:none;stroke-opacity:1"
       id="path2026"
       inkscape:connector-curvature="0" />
    <path
       d="m 260.32993,190.72292 c -0.12499,0.11699 -0.2618,0.21499 -0.5503,0.35098 -0.2885,0.136 -1.08708,0.12771 -1.1503,0.35102 -0.0632,0.22331 0.81731,0.14951 1.12543,0.2256 0.30808,0.0761 0.38368,0.3127 0.70019,0.32589 0.31648,0.013 0.7335,-0.16718 1.10028,-0.25068"
       style="fill:none;stroke:#241f21;stroke-width:0.17638887;stroke-linecap:butt;stroke-linejoin:miter;stroke-miterlimit:22.92558479;stroke-dasharray:none;stroke-opacity:1"
       id="path2028"
       inkscape:connector-curvature="0" />
    <path
       d="m 257.80415,190.77313 c -0.12499,0.11698 -0.2618,0.21498 -0.5503,0.35097 -0.2885,0.136 -1.08712,0.12771 -1.1503,0.35102 -0.0632,0.22331 0.81728,0.1495 1.12539,0.2256 0.30812,0.0761 0.38372,0.3127 0.7002,0.3259 0.31651,0.013 0.73349,-0.16719 1.10031,-0.25069"
       style="fill:none;stroke:#241f21;stroke-width:0.17638887;stroke-linecap:butt;stroke-linejoin:miter;stroke-miterlimit:22.92558479;stroke-dasharray:none;stroke-opacity:1"
       id="path2030"
       inkscape:connector-curvature="0" />
  </g>
</svg>
